# xmcd
#
# Track frame offsets:
#	150
#	15103
#	28066
#	46541
#	54572
#	69338
#	82249
#	93870
#	105913
#	126113
#	137033
#	146507
#	159676
#	171212
#	184680
#	196909
#	206228
#	217713
#	233454
#	241430
#	252401
#	263373
#
# Disc length: 3658
#
# Revision: 3
# Processed by: cddbd v1.5.1PL0 Copyright (c) Steve Scherf et al.
# Submitted via: EasyCDDAExtractor 6.0.0.1
# Normalized: r2:DSETVAR1
#
DISCID=1d0e4816
DTITLE=Various Artist - Country and Western Alltime County Hits
DYEAR=2001
DGENRE=Country
TTITLE0=Olivia Newton John - Take Me Home Country Road
TTITLE1=Charly Rich - The Most Beautiful Girl
TTITLE2=Nitty Gritty Dirt - Mr Bojangles
TTITLE3=Johnny Cash - Hey Good Looking
TTITLE4=Bellamy Brothers - Dancing Cowboys
TTITLE5=Lynn Anderson - Top Of The World
TTITLE6=Frankie Lane - Mule Train
TTITLE7=Billie Joe Spears - Look What They ve Done With My Song
TTITLE8=Emmylou Harris - Love Hurts
TTITLE9=Dolly Parton - Honky Tonk Angels
TTITLE10=Mickey Gilley - Fraulein
TTITLE11=Johnny Lee - Blueberry Hill
TTITLE12=Mickey Gilley - Breathless
TTITLE13=Freddy Fender - In The Still Of The Night
TTITLE14=Don Williams - Some Broken Hearts Never Mend
TTITLE15=Gail Davies - Singing The Blues
TTITLE16=Carl Perkins - Whole Lotta Shakin Going On
TTITLE17=Boxcar Willie - Red River
TTITLE18=Tammy Wynette - When The Grass Grows Over Me
TTITLE19=Patsy Cline - Stop The World
TTITLE20=Tammy Wynette - DIVORCE
TTITLE21=Waylon Jennings - Dream Baby
EXTD=YEAR: 2001 ID3G: 2
EXTT0=
EXTT1=
EXTT2=
EXTT3=
EXTT4=
EXTT5=
EXTT6=
EXTT7=
EXTT8=
EXTT9=
EXTT10=
EXTT11=
EXTT12=
EXTT13=
EXTT14=
EXTT15=
EXTT16=
EXTT17=
EXTT18=
EXTT19=
EXTT20=
EXTT21=
PLAYORDER=
